<svg width="30" height="30" viewBox="0 0 30 30" fill="none" xmlns="http://www.w3.org/2000/svg">
<g id="behance-icon">
<path id="Vector" d="M18.5742 8.62207H24.4189V10.04H18.5742V8.62207ZM12.7178 14.2324C14.0098 13.6143 14.6865 12.6738 14.6865 11.2207C14.6865 8.34668 12.5479 7.64941 10.0781 7.64941H3.28125V22.0752H10.2686C12.8877 22.0752 15.3457 20.8154 15.3457 17.8857C15.3457 16.0752 14.4902 14.7363 12.7178 14.2324ZM6.45117 10.1104H9.42481C10.5703 10.1104 11.5986 10.4297 11.5986 11.7598C11.5986 12.9844 10.7988 13.4766 9.66504 13.4766H6.45117V10.1104ZM9.83496 19.626H6.44824V15.6533H9.90234C11.2969 15.6533 12.1787 16.2363 12.1787 17.7129C12.1787 19.166 11.127 19.626 9.83496 19.626ZM26.7041 17.0039C26.7041 13.9131 24.8965 11.3379 21.627 11.3379C18.4482 11.3379 16.2861 13.7314 16.2861 16.8691C16.2861 20.1211 18.334 22.3535 21.627 22.3535C24.1201 22.3535 25.7344 21.2314 26.5107 18.8379H23.9824C23.707 19.7314 22.5879 20.2002 21.7178 20.2002C20.0361 20.2002 19.1572 19.2158 19.1572 17.543H26.6836C26.6924 17.3701 26.7041 17.1885 26.7041 17.0039ZM19.1572 15.7324C19.248 14.3584 20.165 13.5 21.5361 13.5C22.9775 13.5 23.6982 14.3467 23.8242 15.7324H19.1572Z" fill="#FBFBFE"/>
</g>
</svg>
