<svg width="33" height="33" viewBox="0 0 33 33" fill="none" xmlns="http://www.w3.org/2000/svg">
<g id="github-icon">
<path id="Vector" d="M16.4871 2.45899C8.51748 2.45576 2.0625 8.90752 2.0625 16.8707C2.0625 23.1678 6.10049 28.5206 11.724 30.4864C12.4813 30.6766 12.3653 30.1384 12.3653 29.771V27.2734C7.99219 27.7858 7.81494 24.8919 7.52168 24.4085C6.92871 23.3966 5.52686 23.1388 5.9458 22.6554C6.9416 22.143 7.95674 22.7843 9.13301 24.5213C9.98379 25.7813 11.6435 25.5687 12.4846 25.3592C12.6683 24.6019 13.0614 23.9251 13.6028 23.3998C9.07178 22.5877 7.1833 19.8227 7.1833 16.5355C7.1833 14.9403 7.70859 13.474 8.73984 12.2913C8.08242 10.3416 8.80107 8.67227 8.89775 8.42412C10.7701 8.25654 12.7166 9.76475 12.8681 9.88399C13.9315 9.59717 15.1465 9.4457 16.5064 9.4457C17.8729 9.4457 19.091 9.60361 20.1642 9.89365C20.5283 9.6165 22.333 8.321 24.0732 8.47891C24.1667 8.72705 24.8692 10.3577 24.2505 12.2816C25.2946 13.4676 25.8264 14.9468 25.8264 16.5452C25.8264 19.8388 23.925 22.607 19.3811 23.4062C19.7703 23.789 20.0793 24.2455 20.2901 24.749C20.5009 25.2525 20.6093 25.793 20.6089 26.3389V29.9644C20.6347 30.2544 20.6089 30.5412 21.0923 30.5412C26.7996 28.6173 30.9085 23.2258 30.9085 16.8739C30.9085 8.90752 24.4503 2.45899 16.4871 2.45899Z" fill="#FBFBFE"/>
</g>
</svg>
