<svg width="33" height="33" viewBox="0 0 33 33" fill="none" xmlns="http://www.w3.org/2000/svg">
<g id="gmailicon">
<path id="Vector" d="M25.7538 7.439L23.9938 8.814L16.5001 14.3828L9.00631 8.759L7.24631 7.384C6.83168 7.041 6.32554 6.82718 5.79058 6.76903C5.25562 6.71089 4.71535 6.81096 4.23672 7.05687C3.75808 7.30277 3.3621 7.6837 3.09785 8.15246C2.83359 8.62121 2.71267 9.15719 2.75006 9.694V25.6303C2.75006 26.1262 2.94707 26.6019 3.29777 26.9525C3.64846 27.3032 4.1241 27.5003 4.62006 27.5003H9.00631V16.8853L16.5001 22.509L23.9938 16.8853V27.5003H28.3801C28.876 27.5003 29.3517 27.3032 29.7023 26.9525C30.053 26.6019 30.2501 26.1262 30.2501 25.6303V9.694C30.2759 9.16183 30.1465 8.63361 29.8778 8.17356C29.609 7.71351 29.2124 7.34144 28.7361 7.10258C28.2599 6.86372 27.7245 6.76836 27.195 6.82808C26.6656 6.88781 26.1649 7.10005 25.7538 7.439Z" fill="#FBFBFE"/>
</g>
</svg>
