<svg width="29" height="29" viewBox="0 0 29 29" fill="none" xmlns="http://www.w3.org/2000/svg">
<g id="linkedin-icon" clip-path="url(#clip0_231_836)">
<path id="Vector" d="M6.85623 27.8822V9.82424H0.854122V27.8822H6.85623ZM3.85595 7.35724C5.949 7.35724 7.25181 5.9706 7.25181 4.23775C7.21282 2.46583 5.94908 1.11768 3.89567 1.11768C1.84259 1.11768 0.5 2.46586 0.5 4.23775C0.5 5.97068 1.8025 7.35724 3.81677 7.35724H3.85577H3.85595ZM10.1784 27.8822H16.1805V17.7978C16.1805 17.2581 16.2195 16.7189 16.378 16.3331C16.8119 15.2548 17.7995 14.138 19.4575 14.138C21.6294 14.138 22.4983 15.7939 22.4983 18.2215V27.8821H28.5001V17.5278C28.5001 11.9811 25.5389 9.40029 21.5899 9.40029C18.352 9.40029 16.9304 11.2102 16.1406 12.4429H16.1806V9.82386H10.1785C10.2573 11.5183 10.1785 27.8819 10.1785 27.8819L10.1784 27.8822Z" fill="#FBFBFE"/>
</g>
<defs>
<clipPath id="clip0_231_836">
<rect width="28" height="28" fill="white" transform="translate(0.5 0.5)"/>
</clipPath>
</defs>
</svg>
